<svg width="1600" height="900" viewBox="0 0 1600 900" fill="none" xmlns="http://www.w3.org/2000/svg">
  <rect width="1600" height="900" fill="#0D2438"/>
  <rect x="0" y="0" width="1600" height="900" fill="url(#g3)"/>
  <circle cx="290" cy="180" r="190" fill="#EFB06B" fill-opacity="0.24"/>
  <circle cx="1370" cy="760" r="240" fill="#5BAE96" fill-opacity="0.22"/>
  <path d="M180 720C380 560 620 560 820 720C1000 860 1240 860 1420 720" stroke="#9FD8BE" stroke-width="9"/>
  <path d="M180 780C380 620 620 620 820 780C1000 920 1240 920 1420 780" stroke="#F0B777" stroke-width="7"/>
  <rect x="780" y="170" width="640" height="330" rx="28" fill="#ECF4F9" fill-opacity="0.11" stroke="#C6DAE8" stroke-opacity="0.45"/>
  <path d="M860 270H1340" stroke="#D8E9F2" stroke-width="12" stroke-linecap="round"/>
  <path d="M860 340H1260" stroke="#D8E9F2" stroke-width="12" stroke-linecap="round"/>
  <path d="M860 410H1340" stroke="#D8E9F2" stroke-width="12" stroke-linecap="round"/>
  <text x="180" y="455" fill="#F1F8FC" font-family="Georgia, serif" font-size="62" font-weight="700">Evidence Update</text>
  <text x="180" y="520" fill="#D1E4EE" font-family="Arial, sans-serif" font-size="30">Citations, Outcomes, and Clinical Use</text>
  <defs>
    <linearGradient id="g3" x1="70" y1="60" x2="1540" y2="860" gradientUnits="userSpaceOnUse">
      <stop stop-color="#163A56"/>
      <stop offset="1" stop-color="#0A1D2F"/>
    </linearGradient>
  </defs>
</svg>
